<?xml version="1.0" encoding="utf-8"?>
<!-- Generator: Adobe Illustrator 26.5.0, SVG Export Plug-In . SVG Version: 6.00 Build 0)  -->
<svg version="1.1" id="Layer_1" xmlns="http://www.w3.org/2000/svg" xmlns:xlink="http://www.w3.org/1999/xlink" x="0px" y="0px"
	 viewBox="0 0 512 512" style="enable-background:new 0 0 512 512;" xml:space="preserve">
<style type="text/css">
	.st0{fill:#231F20;}
	.st1{fill:#ED1C24;}
</style>
<g id="XMLID_1_">
	<path id="XMLID_5_" class="st0" d="M150.93,174.08c9.12-0.28,16-4.63,16-13.19c0-8.14-6.59-12.07-17.12-12.07h-10.24v25.54
		L150.93,174.08z M139.56,209.44h-9.4v-69.17h20.63c16.7,0,25.4,8,25.4,20.2c0,10.38-6.03,16.84-15.57,19.92l18.66,29.04h-11.22
		l-16.84-27.5l-11.79,0.84v26.66"/>
	<path id="XMLID_8_" class="st0" d="M212.38,179.41v-0.7c0-7.3-3.37-12.07-10.8-12.07c-8.14,0-12.77,6.59-13.47,13.05L212.38,179.41
		z M187.69,186.43c0.28,9.54,6.45,16.42,15.57,16.42c4.91,0,10.38-1.4,14.17-4.07l1.54,8.14c-4.21,2.67-9.96,4.07-15.86,4.07
		c-14.31,0-23.99-10.52-23.99-25.54c0-15.86,10.1-26.52,23.43-26.52c11.51,0,18.1,7.44,18.1,19.08c0,2.67-0.42,5.61-0.98,7.86
		c-0.14,0-31.85,0.14-31.85,0.14v0.42"/>
	<path id="XMLID_11_" class="st0" d="M254.06,185.02c-14.03,1.96-19.22,4.91-19.22,10.8c0,4.35,3.23,7.58,8.42,7.58
		c4.35,0,8.14-2.25,10.8-5.19V185.02z M253.92,204.1c-3.65,4.35-8,6.88-13.05,6.88c-8.84,0-15.15-6.03-15.15-14.03
		c0-8.7,6.03-16.42,28.2-17.54v-1.4c0-7.86-2.95-11.08-10.66-11.08c-4.91,0-10.8,2.39-15.29,5.47l-1.68-7.86
		c4.07-2.95,11.08-5.61,17.82-5.61c12.77,0,18.52,5.61,18.24,18.94v20.49c0,4.07,0.56,4.77,4.63,4.77l-0.56,7.3
		c-7.72,0.7-11.08-2.1-12.35-6.45h-0.14"/>
	<path id="XMLID_14_" class="st0" d="M352.13,179.41v-0.7c0-7.3-3.37-12.07-10.8-12.07c-8,0-12.77,6.59-13.47,13.05L352.13,179.41z
		 M327.44,186.43c0.28,9.54,6.45,16.42,15.57,16.42c4.91,0,10.38-1.4,14.17-4.07l1.54,8.14c-4.21,2.67-9.96,4.07-15.86,4.07
		c-14.31,0-23.99-10.52-23.99-25.54c0-15.86,10.1-26.52,23.43-26.52c11.51,0,18.1,7.44,18.1,19.08c0,2.67-0.42,5.61-0.98,7.86
		c-0.14,0-31.85,0.14-31.85,0.14v0.42"/>
	<path id="XMLID_15_" class="st0" d="M376.41,209.3h-8.42v-49.11l8.42-1.4v8.7c3.37-5.47,7.3-8.7,13.19-8.7
		c3.23,0,6.45,0.84,8.84,2.39l-2.25,8.28c-2.67-1.54-5.19-2.25-7.58-2.25c-4.49,0-8.84,3.37-12.35,10.1v31.99"/>
	<path id="XMLID_16_" class="st0" d="M418.5,210.98c-5.75,0-12.21-1.82-16.56-4.63l2.1-8c3.93,2.81,9.68,4.63,14.59,4.63
		c5.33,0,9.4-2.53,9.4-6.88c0-4.91-5.61-6.45-11.22-8.14c-6.73-1.96-14.03-5.33-14.03-14.31c0-9.12,7.44-14.87,16.98-14.87
		c5.47,0,10.94,1.4,15.29,3.65l-2.1,8c-3.93-2.24-9.54-3.65-13.61-3.65c-5.05,0-8.42,2.1-8.42,6.03c0,4.63,5.05,6.31,10.94,7.86
		c6.88,1.96,14.45,5.33,14.45,14.59C436.46,204.67,428.89,210.98,418.5,210.98"/>
	<path id="XMLID_20_" class="st0" d="M207.33,279.03c13.33,0,21.89-9.54,21.89-23.85c0-13.33-7.86-23.01-23.43-23.01
		c-13.33,0-22.31,9.82-22.31,24.13C183.48,269.91,192.6,279.03,207.33,279.03z M174.64,344.42c0,10.94,12.91,18.94,32.41,18.94
		c19.22,0,34.38-8.28,34.38-20.77c0-11.22-10.1-13.89-30.59-13.89c-6.45,0-14.03-0.42-18.52-0.84
		C182.08,330.81,174.64,336.84,174.64,344.42z M165.1,307.37c0-8.42,6.74-16.28,16.98-19.92c-10.66-6.31-16.98-17.4-16.98-31.43
		c0-20.06,15.01-38.59,41.53-38.59c10.94,0,19.92,2.95,26.38,5.75l26.38-2.53l0.7,18.1l-19.64-3.51c4.07,3.79,6.88,13.33,6.88,20.91
		c0,20.49-16.98,37.46-40.83,37.46c-5.19,0-8.28-0.7-14.31-2.39c-4.21,1.54-10.1,5.61-10.1,10.66c0,6.03,4.07,9.54,23.15,9.54
		c0,0,11.65,0,9.4,0c30.59,0,44.62,9.4,44.62,27.5c0,22.59-24.27,39.29-55.14,39.29c-26.94,0-47.57-11.65-47.57-29.89
		c0-11.65,7.86-21.19,21.89-23.85C169.73,320.84,165.1,314.53,165.1,307.37"/>
	<path id="XMLID_23_" class="st0" d="M334.74,260.37v-1.54c0-15.15-7.16-25.26-23.15-25.26c-17.4,0-27.64,13.89-29.18,27.22
		L334.74,260.37z M281.42,275.1c0.7,20.06,14.03,34.38,33.67,34.38c10.66,0,22.31-2.95,30.59-8.42l3.37,16.98
		c-9.12,5.61-21.47,8.42-34.38,8.42c-30.87,0-51.78-22.17-51.78-53.32c0-32.97,21.89-55.56,50.51-55.56
		c24.84,0,39.01,15.57,39.01,39.99c0,5.61-0.84,11.79-2.24,16.28c-0.28,0-68.75,0.42-68.75,0.42L281.42,275.1"/>
	<path id="XMLID_24_" class="st0" d="M399.7,326.6c-12.49,0-26.38-3.79-35.78-9.54l4.63-16.7c8.42,5.75,20.91,9.54,31.43,9.54
		c11.65,0,20.35-5.33,20.35-14.45c0-10.24-12.07-13.61-24.13-16.98c-14.45-4.07-30.31-11.23-30.31-29.89
		c0-18.94,16.14-31.01,36.62-31.01c11.79,0,23.71,2.95,32.97,7.58l-4.63,16.7c-8.42-4.63-20.77-7.58-29.18-7.58
		c-10.94,0-18.1,4.49-18.1,12.77c0,9.82,10.94,13.19,23.71,16.56c15.01,4.07,31.01,11.23,31.01,30.59
		C438.29,313.41,422.01,326.6,399.7,326.6"/>
	<path id="XMLID_25_" class="st0" d="M489.22,326.32c-19.92,0-30.59-9.54-30.59-31.85v-57.11l-16.98-1.12l0.42-11.65l16.84-5.19
		l-0.14-22.03h17.54v23.43h31.85l-0.28,16.56h-31.85v57.81c0,9.54,4.63,14.45,13.75,14.45c6.31,0,12.49-1.54,18.38-3.79
		c0.28,0,3.79,16.14,3.79,16.14C504.51,324.77,496.8,326.32,489.22,326.32"/>
	<polyline id="XMLID_26_" class="st1" points="402.09,161.17 402.09,133.67 420.33,133.67 402.09,161.17 	"/>
	<path id="XMLID_29_" class="st0" d="M304.01,198.07c-3.23,2.95-7.02,4.63-11.51,4.63c-8.84,0-14.03-7.16-14.03-17.96
		c0-9.96,5.33-18.1,15.01-18.1c4.07,0,7.72,1.12,10.52,3.51C304.01,170.29,304.01,198.63,304.01,198.07z M304.01,160.47
		c-2.95-0.98-6.88-1.54-10.24-1.54c-14.17,0-24.13,11.37-24.13,26.24c0,14.73,7.72,25.82,21.05,25.82c5.61,0,9.82-2.81,13.19-6.03
		c0,0.56,0,4.49,0,4.49h8.42v-75.49h-8.42v26.52"/>
	<polygon id="XMLID_30_" class="st0" points="130.44,220.8 130.44,323.09 148.82,323.09 148.82,220.8 	"/>
	<path id="XMLID_33_" class="st0" d="M41.9,305.41H30.82l-11.93,16.42V201.16h22.03c35.22,0,55.84,18.1,55.84,52.48
		C96.77,287.73,75.16,305.41,41.9,305.41z M41.9,183.48c-11.22,0-41.95,0-41.95,0v139.47c0,0,29.89,0,41.11,0
		c47.99,0,74.79-27.64,74.79-70.72C115.85,210.7,88.07,183.48,41.9,183.48"/>
</g>
</svg>
